<?xml version="1.0" standalone="no"?>
<!DOCTYPE svg PUBLIC "-//W3C//DTD SVG 20010904//EN"
 "http://www.w3.org/TR/2001/REC-SVG-20010904/DTD/svg10.dtd">
<svg version="1.0" xmlns="http://www.w3.org/2000/svg"
 width="2000.000000pt" height="2000.000000pt" viewBox="0 0 2000.000000 2000.000000"
 preserveAspectRatio="xMidYMid meet">
<metadata>
Created by potrace 1.11, written by Peter Selinger 2001-2013
</metadata>
<g transform="translate(0.000000,2000.000000) scale(0.100000,-0.100000)"
fill="#000000" stroke="none">
<path d="M9679 19696 c-2 -2 -69 -7 -149 -10 -80 -4 -158 -8 -175 -10 -16 -2
-70 -7 -120 -11 -49 -3 -103 -8 -120 -10 -16 -2 -57 -7 -90 -10 -33 -3 -73 -8
-90 -10 -16 -3 -97 -14 -180 -25 -1055 -144 -2085 -512 -2958 -1057 -323 -201
-713 -491 -971 -723 -139 -124 -185 -167 -306 -285 -659 -647 -1149 -1315
-1567 -2135 -92 -180 -203 -413 -203 -424 0 -2 -15 -37 -34 -78 -174 -380
-387 -1011 -521 -1546 -71 -288 -163 -725 -189 -907 -4 -23 -8 -50 -10 -62
-12 -59 -55 -356 -71 -485 -3 -21 -7 -55 -10 -75 -2 -21 -7 -65 -10 -98 -4
-33 -8 -71 -10 -85 -2 -14 -6 -54 -10 -90 -3 -36 -8 -81 -10 -100 -2 -19 -7
-73 -10 -120 -4 -47 -8 -96 -10 -110 -2 -14 -6 -77 -10 -140 -4 -63 -8 -131
-10 -150 -2 -19 -6 -111 -10 -205 -4 -93 -9 -201 -11 -240 -7 -116 -7 -1053 0
-1150 3 -49 8 -153 11 -230 3 -77 7 -165 10 -195 2 -30 7 -98 10 -150 8 -125
32 -391 51 -560 264 -2392 1101 -4297 2504 -5700 568 -569 1167 -1003 1869
-1354 918 -460 1983 -745 3101 -831 41 -3 93 -8 115 -10 255 -27 1389 -27
1575 0 14 2 57 6 95 9 156 14 193 17 270 27 44 5 96 12 115 14 370 45 739 120
1185 240 216 58 623 202 850 300 749 323 1365 723 1984 1290 180 165 457 454
642 670 266 311 523 665 743 1028 53 87 96 160 96 162 0 3 11 22 23 43 101
159 318 604 446 913 201 485 397 1126 501 1639 12 58 24 114 26 125 2 11 15
83 29 160 14 77 27 150 30 163 l5 22 -1923 0 -1923 0 -43 -157 c-124 -448
-308 -942 -484 -1298 -90 -182 -303 -540 -337 -565 -4 -3 -11 -12 -16 -21 -12
-21 -51 -71 -153 -193 -101 -122 -303 -323 -427 -427 -461 -384 -1032 -636
-1691 -749 -35 -5 -75 -12 -89 -15 -15 -2 -72 -9 -128 -15 -56 -6 -114 -13
-131 -15 -134 -19 -615 -26 -810 -12 -155 11 -400 41 -500 61 -11 2 -56 12
-100 21 -184 37 -505 134 -630 190 -16 7 -54 23 -83 34 -30 12 -116 53 -194
91 -711 352 -1348 961 -1783 1705 -384 655 -647 1496 -780 2490 -3 26 -14 115
-30 255 -25 219 -49 551 -60 855 -8 193 -8 892 -1 1055 13 282 19 390 32 550
6 79 33 371 39 420 20 172 28 229 41 320 15 104 18 126 28 185 3 17 8 46 11
65 20 121 27 160 35 200 5 25 12 56 14 70 44 246 161 694 256 980 248 744 610
1394 1065 1909 42 49 291 298 342 344 558 497 1273 814 2038 902 28 3 64 7 80
10 190 27 786 27 1035 0 19 -3 66 -7 105 -10 38 -4 72 -8 75 -10 3 -1 32 -6
65 -9 54 -6 232 -37 295 -50 14 -3 41 -9 60 -12 76 -14 424 -110 484 -134 12
-5 75 -30 141 -55 593 -229 1094 -618 1464 -1139 33 -48 61 -88 61 -90 0 -3
18 -32 41 -66 98 -148 277 -504 364 -725 15 -38 33 -83 40 -100 50 -110 228
-653 251 -759 2 -11 7 -23 12 -28 4 -4 878 -7 1942 -6 l1934 3 -2 50 c-5 82
-28 320 -37 375 -2 14 -6 48 -10 75 -5 43 -32 203 -50 300 -22 115 -82 362
-115 475 -22 74 -42 144 -45 154 -2 11 -15 49 -27 85 -12 36 -23 68 -23 71 -1
3 -7 18 -13 33 -7 16 -12 32 -12 35 0 11 -102 272 -152 392 -151 355 -371 773
-589 1115 -32 51 -250 377 -260 389 -5 6 -36 47 -69 91 -86 115 -127 167 -227
290 -194 237 -481 533 -723 745 -46 41 -90 80 -96 85 -6 6 -30 26 -54 45 -24
19 -48 40 -54 45 -61 55 -320 245 -477 351 -526 354 -1108 636 -1739 844 -174
58 -450 140 -516 155 -10 2 -45 11 -76 19 -32 9 -72 18 -89 21 -18 3 -35 8
-39 10 -4 2 -22 7 -41 10 -19 3 -50 10 -69 15 -19 5 -46 11 -60 14 -14 2 -92
18 -175 35 -137 28 -230 45 -310 56 -16 3 -46 7 -65 10 -19 3 -80 12 -135 20
-55 8 -116 17 -135 19 -38 6 -106 14 -185 22 -27 2 -63 7 -80 9 -65 8 -308 29
-490 41 -55 4 -122 8 -150 10 -75 6 -1060 15 -1066 10z"/>
</g>
</svg>
